<?xml version="1.0" encoding="utf-8"?>
<!-- Generator: Adobe Illustrator 27.5.0, SVG Export Plug-In . SVG Version: 6.00 Build 0)  -->
<svg version="1.1" id="Layer_1" xmlns="http://www.w3.org/2000/svg" xmlns:xlink="http://www.w3.org/1999/xlink" x="0px" y="0px"
	 viewBox="0 0 7000 4081" style="enable-background:new 0 0 7000 4081;" xml:space="preserve">
<g>
	<rect style="fill-rule:evenodd;clip-rule:evenodd;fill:#004790;" width="7000" height="4081"/>
	<g>
		<defs>
			<path id="SVGID_1_" d="M3320.719,344.226c0-117.012-15.137-231.966-44.332-344.226H0v2330.224V4081h2399.771
				C798.596,2424.6,3320.719,1678.775,3320.719,344.226"/>
		</defs>
		<clipPath id="SVGID_00000138565093219312107620000015451467399240533925_">
			<use xlink:href="#SVGID_1_"  style="overflow:visible;"/>
		</clipPath>
		
			<linearGradient id="SVGID_00000178927163226811506610000005478897835122386602_" gradientUnits="userSpaceOnUse" x1="5033.6074" y1="3923.7214" x2="1684.8407" y2="2054.1672">
			<stop  offset="0" style="stop-color:#5EFAF7"/>
			<stop  offset="1" style="stop-color:#004790"/>
		</linearGradient>
		
			<rect style="clip-path:url(#SVGID_00000138565093219312107620000015451467399240533925_);fill:url(#SVGID_00000178927163226811506610000005478897835122386602_);" width="3320.719" height="4081"/>
	</g>
	<g>
		<defs>
			<path id="SVGID_00000044139548932417251460000013412992930817595540_" d="M2642.996,344.226
				c0-117.012-15.135-231.966-44.33-344.226H0v2330.224V4081h1722.049C120.874,2424.6,2642.996,1678.775,2642.996,344.226"/>
		</defs>
		<clipPath id="SVGID_00000168815742909290363920000011224037579772081322_">
			<use xlink:href="#SVGID_00000044139548932417251460000013412992930817595540_"  style="overflow:visible;"/>
		</clipPath>
		
			<linearGradient id="SVGID_00000072986635285627262000000005728784741083730313_" gradientUnits="userSpaceOnUse" x1="3904.429" y1="3213.0286" x2="1090.1799" y2="1935.4926">
			<stop  offset="0" style="stop-color:#5EFAF7"/>
			<stop  offset="1" style="stop-color:#1575A8"/>
		</linearGradient>
		
			<rect style="clip-path:url(#SVGID_00000168815742909290363920000011224037579772081322_);fill:url(#SVGID_00000072986635285627262000000005728784741083730313_);" width="2642.996" height="4081"/>
	</g>
	<g>
		<defs>
			<path id="SVGID_00000113350528193712359840000004794988675918665919_" d="M1992.965,344.226
				c0-117.012-15.137-231.966-44.33-344.226H0v2330.224V4081h1072.016C-529.159,2424.6,1992.965,1678.775,1992.965,344.226"/>
		</defs>
		<clipPath id="SVGID_00000160170542766498533380000017697314115173734018_">
			<use xlink:href="#SVGID_00000113350528193712359840000004794988675918665919_"  style="overflow:visible;"/>
		</clipPath>
		
			<linearGradient id="SVGID_00000175302235889137570340000003382966084533073795_" gradientUnits="userSpaceOnUse" x1="2070.1038" y1="2558.2195" x2="-969.2822" y2="1382.3497">
			<stop  offset="0" style="stop-color:#5EFAF7"/>
			<stop  offset="1" style="stop-color:#1575A8"/>
		</linearGradient>
		
			<rect x="-529.159" style="clip-path:url(#SVGID_00000160170542766498533380000017697314115173734018_);fill:url(#SVGID_00000175302235889137570340000003382966084533073795_);" width="2522.124" height="4081"/>
	</g>
	<g>
		<defs>
			<path id="SVGID_00000044140625094084927750000004840163418104401323_" d="M1598.618,0H0v2330.224V4081h721.999
				c-1601.175-1656.4,920.949-2402.225,920.949-3736.774C1642.948,227.213,1627.81,112.26,1598.618,0"/>
		</defs>
		<clipPath id="SVGID_00000145056625084839548290000011609602779103703944_">
			<use xlink:href="#SVGID_00000044140625094084927750000004840163418104401323_"  style="overflow:visible;"/>
		</clipPath>
		
			<linearGradient id="SVGID_00000085968809844538744310000001191218075661638018_" gradientUnits="userSpaceOnUse" x1="1156.8997" y1="2214.2078" x2="-1309.524" y2="1661.3961">
			<stop  offset="0" style="stop-color:#5EFAF7"/>
			<stop  offset="1" style="stop-color:#1575A8"/>
		</linearGradient>
		
			<rect x="-879.176" style="clip-path:url(#SVGID_00000145056625084839548290000011609602779103703944_);fill:url(#SVGID_00000085968809844538744310000001191218075661638018_);" width="2522.124" height="4081"/>
	</g>
	<g>
		<defs>
			<path id="SVGID_00000062161888845804684390000000359333472332914066_" d="M3679.282,344.226
				c0-117.012,15.135-231.966,44.33-344.226H7000v2330.224V4081H4600.229C6201.404,2424.6,3679.282,1678.775,3679.282,344.226"/>
		</defs>
		<clipPath id="SVGID_00000017483450324155281680000004176828605140264101_">
			<use xlink:href="#SVGID_00000062161888845804684390000000359333472332914066_"  style="overflow:visible;"/>
		</clipPath>
		
			<linearGradient id="SVGID_00000066495629155980815290000002761783232237627798_" gradientUnits="userSpaceOnUse" x1="1966.3928" y1="3923.7219" x2="5315.1597" y2="2054.1677">
			<stop  offset="0" style="stop-color:#5EFAF7"/>
			<stop  offset="1" style="stop-color:#004790"/>
		</linearGradient>
		
			<rect x="3679.282" style="clip-path:url(#SVGID_00000017483450324155281680000004176828605140264101_);fill:url(#SVGID_00000066495629155980815290000002761783232237627798_);" width="3320.718" height="4081"/>
	</g>
	<g>
		<defs>
			<path id="SVGID_00000074443019119883989030000017110316531466048436_" d="M4357.004,344.226
				c0-117.012,15.137-231.966,44.33-344.226H7000v2330.224V4081H5277.953C6879.126,2424.6,4357.004,1678.775,4357.004,344.226"/>
		</defs>
		<clipPath id="SVGID_00000032611505276357540460000013071246537898049670_">
			<use xlink:href="#SVGID_00000074443019119883989030000017110316531466048436_"  style="overflow:visible;"/>
		</clipPath>
		
			<linearGradient id="SVGID_00000168795785422849390220000006365468763233039764_" gradientUnits="userSpaceOnUse" x1="3095.571" y1="3213.0286" x2="5909.8198" y2="1935.4926">
			<stop  offset="0" style="stop-color:#5EFAF7"/>
			<stop  offset="1" style="stop-color:#1575A8"/>
		</linearGradient>
		
			<rect x="4357.004" style="clip-path:url(#SVGID_00000032611505276357540460000013071246537898049670_);fill:url(#SVGID_00000168795785422849390220000006365468763233039764_);" width="2642.996" height="4081"/>
	</g>
	<g>
		<defs>
			<path id="SVGID_00000121992119690596529430000011748728695644823174_" d="M5007.037,344.226
				c0-117.012,15.136-231.966,44.33-344.226H7000v2330.224V4081H5927.983C7529.159,2424.6,5007.037,1678.775,5007.037,344.226"/>
		</defs>
		<clipPath id="SVGID_00000109721620223573352240000001475573426354083464_">
			<use xlink:href="#SVGID_00000121992119690596529430000011748728695644823174_"  style="overflow:visible;"/>
		</clipPath>
		
			<linearGradient id="SVGID_00000013910399576328138790000015483982670290262698_" gradientUnits="userSpaceOnUse" x1="4929.8965" y1="2558.22" x2="7969.2822" y2="1382.3499">
			<stop  offset="0" style="stop-color:#5EFAF7"/>
			<stop  offset="1" style="stop-color:#1575A8"/>
		</linearGradient>
		
			<rect x="5007.037" style="clip-path:url(#SVGID_00000109721620223573352240000001475573426354083464_);fill:url(#SVGID_00000013910399576328138790000015483982670290262698_);" width="2522.122" height="4081"/>
	</g>
	<g>
		<defs>
			<path id="SVGID_00000121986532867283291850000017606128182010172086_" d="M5401.384,0H7000v2330.224V4081h-721.999
				c1601.175-1656.4-920.947-2402.225-920.947-3736.774C5357.054,227.213,5372.19,112.26,5401.384,0"/>
		</defs>
		<clipPath id="SVGID_00000149381536124571577420000002248354517656986255_">
			<use xlink:href="#SVGID_00000121986532867283291850000017606128182010172086_"  style="overflow:visible;"/>
		</clipPath>
		
			<linearGradient id="SVGID_00000023995456658749261960000006680617265162036611_" gradientUnits="userSpaceOnUse" x1="5843.1006" y1="2214.208" x2="8309.5244" y2="1661.3962">
			<stop  offset="0" style="stop-color:#5EFAF7"/>
			<stop  offset="1" style="stop-color:#1575A8"/>
		</linearGradient>
		
			<rect x="5357.054" style="clip-path:url(#SVGID_00000149381536124571577420000002248354517656986255_);fill:url(#SVGID_00000023995456658749261960000006680617265162036611_);" width="2522.122" height="4081"/>
	</g>
</g>
</svg>
