<?xml version="1.0" encoding="utf-8"?>
<!-- Generator: Adobe Illustrator 23.1.0, SVG Export Plug-In . SVG Version: 6.00 Build 0)  -->
<svg version="1.1" id="Layer_1" xmlns="http://www.w3.org/2000/svg" xmlns:xlink="http://www.w3.org/1999/xlink" x="0px" y="0px"
	 viewBox="0 0 2000 2000" style="enable-background:new 0 0 2000 2000;" xml:space="preserve">
<style type="text/css">
	.st0{fill:#FFC828;}
</style>
<g>
	<g>
		<path class="st0" d="M1651.8,1413H348.2c-16.6,0-30-13.4-30-30V617c0-16.6,13.4-30,30-30h1303.6c16.6,0,30,13.4,30,30v766
			C1681.8,1399.6,1668.3,1413,1651.8,1413z"/>
		<path d="M1651.8,1423H348.2c-22.1,0-40-17.9-40-40V617c0-22.1,17.9-40,40-40h1303.6c22.1,0,40,17.9,40,40v766
			C1691.8,1405.1,1673.8,1423,1651.8,1423z M348.2,597c-11,0-20,9-20,20v766c0,11,9,20,20,20h1303.6c11,0,20-9,20-20V617
			c0-11-9-20-20-20H348.2z"/>
	</g>
	<g>
		<path d="M855.3,936.8l-46,183h-42.1l-30.1-121l-29,121h-41.8l-47.1-183H663l25.2,111.7c0.1,0.5,0.6,2.5,1.5,5.9
			c0.4,1.3,0.9,3.1,1.5,5.6l30-123.2h39.5l30.8,123.2c0.6-2.3,1.5-6.2,2.7-11.5l26-111.7H855.3z"/>
		<path d="M940.8,1122.6c-24.6,0-43.7-9.2-57.2-27.7c-13.5-18.5-20.2-40.9-20.2-67.2c0-26.7,6.8-49,20.5-66.9
			C897.5,943,917,934,942.2,934c25.5,0,44.8,9.5,57.8,28.6c13,19.1,19.5,40.9,19.5,65.5c0,26.5-6.7,48.9-20.1,67.2
			C986,1113.5,966.5,1122.6,940.8,1122.6z M942,969c-22.5,0-33.7,19.8-33.7,59.2c0,39.6,11.2,59.4,33.7,59.4
			c21.8,0,32.6-19.7,32.6-59.2C974.6,988.8,963.7,969,942,969z"/>
		<path d="M1090.7,1047.3v72.5h-43.2v-183h80.4c14.8,0,26.7,1.7,35.7,5.2c9,3.4,16.4,9.8,22.3,19c5.9,9.2,8.8,19.4,8.8,30.7
			c0,22-10.6,37.7-31.8,47.3l33.8,80.9h-47.4l-28.1-72.5H1090.7z M1090.7,969.4v46.6h26.3c8.6,0,14.8-0.6,18.7-1.8s7.3-3.9,10.4-8
			c3-4.2,4.6-8.9,4.6-14.3c0-5.1-1.5-9.7-4.6-13.7c-3-4-6.3-6.5-9.9-7.4c-3.6-0.9-10.3-1.4-20.1-1.4H1090.7z"/>
		<path d="M1270,936.8v86l57.4-86h41l-43.9,65.3l54.9,117.6h-47.2l-36.5-79.5l-25.7,37.5v42h-42.1v-183H1270z"/>
		<path d="M434.2,1166.5v133.3h-31.2v-133.3H434.2z"/>
		<path d="M563.5,1166.5v133.3h-26.6l-52.2-90c0.1,2.3,0.1,3.8,0.2,4.5c0.3,2.3,0.4,4.2,0.4,5.8v79.8H461v-133.3h33.7l45.3,78.6
			c-0.4-3.9-0.6-6.9-0.6-8.9v-69.7H563.5z"/>
		<path d="M672,1250.3v49.5h-31.7v-133.3h52.5c11.7,0,20.7,1.3,26.9,3.8c6.2,2.5,11.8,7,16.7,13.4s7.3,14.4,7.3,23.7
			c0,6.6-1.3,13-3.9,19.2c-2.6,6.3-6.3,11.2-11,14.7c-4.8,3.6-9.4,6-13.8,7.1c-4.5,1.2-11.4,1.8-20.9,1.8H672z M670.9,1226.1h20.3
			c7.7,0,13.2-1.8,16.3-5.4c3.1-3.6,4.7-7.7,4.7-12.3c0-5.4-1.7-9.7-5.2-12.9c-3.5-3.2-8.8-4.8-15.9-4.8h-20.2V1226.1z"/>
		<path d="M792.4,1247v52.8H761v-133.3h58.6c10.8,0,19.5,1.3,26,3.8c6.5,2.5,12,7.1,16.3,13.8s6.4,14.2,6.4,22.3
			c0,16-7.7,27.5-23.1,34.4l24.6,58.9h-34.5l-20.5-52.8H792.4z M792.4,1190.2v34h19.1c6.3,0,10.8-0.4,13.6-1.3s5.4-2.8,7.6-5.9
			c2.2-3,3.3-6.5,3.3-10.4c0-3.7-1.1-7-3.3-10c-2.2-2.9-4.6-4.7-7.2-5.4c-2.6-0.7-7.5-1-14.6-1H792.4z"/>
		<path d="M939.8,1301.9c-18,0-31.8-6.7-41.7-20.2s-14.7-29.8-14.7-48.9c0-19.5,5-35.7,14.9-48.7c10-13,24.1-19.5,42.5-19.5
			c18.6,0,32.6,7,42.1,20.8c9.5,13.9,14.2,29.8,14.2,47.7c0,19.3-4.9,35.6-14.6,48.9C972.8,1295.2,958.6,1301.9,939.8,1301.9z
			 M940.7,1190c-16.4,0-24.6,14.4-24.6,43.2c0,28.8,8.2,43.3,24.6,43.3c15.9,0,23.8-14.4,23.8-43.2
			C964.5,1204.4,956.6,1190,940.7,1190z"/>
		<path d="M1121.4,1228.5v71.3h-14.3c-1-5-2.5-10.1-4.4-15.3c-9.5,11.6-21.6,17.4-36.3,17.4c-17.4,0-30.9-6.2-40.6-18.7
			c-9.7-12.4-14.5-28.5-14.5-48.2c0-21.2,5.2-38.3,15.5-51.2c10.3-12.9,24.3-19.3,42-19.3c14.8,0,26.8,4.2,35.9,12.5
			c9.1,8.3,14.7,19.4,16.7,33.3l-29.7,3.9c-2.4-16.1-10.1-24.2-22.9-24.2c-8.5,0-14.9,3.8-19.2,11.5c-4.3,7.7-6.5,18.6-6.5,32.8
			c0,13.7,2.3,24.1,7,31.3s11.4,10.8,20,10.8c5.6,0,10.6-1.8,15-5.5c4.4-3.6,6.6-9.5,6.6-17.5h-25.1v-24.9H1121.4z"/>
		<path d="M1177.5,1247v52.8H1146v-133.3h58.6c10.8,0,19.5,1.3,26,3.8c6.5,2.5,12,7.1,16.3,13.8s6.4,14.2,6.4,22.3
			c0,16-7.7,27.5-23.1,34.4l24.6,58.9h-34.5l-20.5-52.8H1177.5z M1177.5,1190.2v34h19.1c6.3,0,10.8-0.4,13.6-1.3s5.4-2.8,7.6-5.9
			c2.2-3,3.3-6.5,3.3-10.4c0-3.7-1.1-7-3.3-10c-2.2-2.9-4.6-4.7-7.2-5.4c-2.6-0.7-7.5-1-14.6-1H1177.5z"/>
		<path d="M1372.7,1191.9h-63.5v27.3h49.9v25.1h-49.9v29.1h63.5v26.4h-95.2v-133.3h95.2V1191.9z"/>
		<path d="M1483.5,1195.8l-26.6,8.9c-3.6-10.5-11.1-15.8-22.7-15.8c-12.3,0-18.5,4-18.5,12c0,3.2,1.2,5.9,3.5,8.1
			c2.3,2.2,7.5,4.1,15.7,5.8c13.6,2.7,23.5,5.5,29.8,8.3c6.3,2.8,11.6,7.3,15.9,13.5s6.5,13.2,6.5,20.8c0,12-4.6,22.5-13.9,31.2
			c-9.3,8.8-23,13.2-41.2,13.2c-13.7,0-25.3-3.1-34.9-9.3c-9.6-6.2-15.9-15.4-19-27.7l28.9-6.5c3.2,12.4,12.3,18.7,27.1,18.7
			c7.1,0,12.5-1.4,16-4.2c3.5-2.8,5.3-6.1,5.3-9.9c0-3.9-1.6-6.9-4.8-9.1c-3.2-2.1-9.3-4.2-18.4-6.1c-17-3.5-29.1-8.3-36.3-14.4
			c-7.2-6.1-10.8-15-10.8-26.7c0-11.8,4.3-21.8,12.9-30c8.6-8.1,20.3-12.2,35.1-12.2C1459.3,1164.5,1476.1,1174.9,1483.5,1195.8z"/>
		<path d="M1599.7,1195.8l-26.6,8.9c-3.6-10.5-11.1-15.8-22.7-15.8c-12.3,0-18.5,4-18.5,12c0,3.2,1.2,5.9,3.5,8.1
			c2.3,2.2,7.5,4.1,15.7,5.8c13.6,2.7,23.5,5.5,29.8,8.3c6.3,2.8,11.6,7.3,15.9,13.5s6.5,13.2,6.5,20.8c0,12-4.6,22.5-13.9,31.2
			c-9.3,8.8-23,13.2-41.2,13.2c-13.7,0-25.3-3.1-34.9-9.3c-9.6-6.2-15.9-15.4-19-27.7l28.9-6.5c3.2,12.4,12.3,18.7,27.1,18.7
			c7.1,0,12.5-1.4,16-4.2c3.5-2.8,5.3-6.1,5.3-9.9c0-3.9-1.6-6.9-4.8-9.1c-3.2-2.1-9.3-4.2-18.4-6.1c-17-3.5-29.1-8.3-36.3-14.4
			c-7.2-6.1-10.8-15-10.8-26.7c0-11.8,4.3-21.8,12.9-30c8.6-8.1,20.3-12.2,35.1-12.2C1575.4,1164.5,1592.2,1174.9,1599.7,1195.8z"/>
	</g>
	<g>
		<g>
			<path d="M1629.3,833.2H370.7c-16.6,0-30-13.4-30-30V637.4c0-16.6,13.4-30,30-30h1258.5c16.6,0,30,13.4,30,30v165.8
				C1659.3,819.8,1645.8,833.2,1629.3,833.2z"/>
		</g>
		<g>
			<g>
				<g>
					<path class="st0" d="M535.2,640.1l-86.9,150.6c-3.7,6.5,0.9,14.6,8.4,14.6h173.9c7.5,0,12.2-8.1,8.4-14.6L552,640.1
						C548.3,633.7,538.9,633.7,535.2,640.1z"/>
				</g>
			</g>
			<g>
				<g>
					<path d="M627.2,799.2H460c-2,0-3.8-1-4.8-2.8c-1-1.7-1-3.8,0-5.6l83.6-144.8c1-1.7,2.8-2.8,4.8-2.8c0,0,0,0,0,0
						c2,0,3.8,1,4.8,2.8L632,790.8c1,1.7,1,3.8,0,5.6C631,798.2,629.2,799.2,627.2,799.2z M540.2,646.9l1.4,0.8L458,792.4
						c-0.4,0.7-0.4,1.6,0,2.4s1.2,1.2,2.1,1.2h167.2c0.9,0,1.6-0.4,2.1-1.2c0.4-0.7,0.4-1.6,0-2.4l-83.6-144.8
						c-0.4-0.7-1.2-1.2-2.1-1.2s-1.6,0.4-2.1,1.2L540.2,646.9z"/>
				</g>
			</g>
			<g>
				<g>
					<g>
						<path d="M550.8,696.6l-6.3,67.1c0,0.4-0.4,0.8-0.8,0.8l0,0c-0.4,0-0.8-0.3-0.8-0.8l-6.3-67.1c-0.4-4.2,2.9-7.9,7.2-7.9l0,0
							C547.9,688.7,551.2,692.4,550.8,696.6z"/>
					</g>
				</g>
				<g>
					<g>
						<circle cx="543.6" cy="773.5" r="5.1"/>
					</g>
				</g>
			</g>
		</g>
		<g>
			<g>
				<path class="st0" d="M840.3,701.7l-35.7,2.2c-0.5-20.5-8.5-30.8-24-30.8c-17.8,0-26.7,15.8-26.7,47.4c0,18.3,2.4,30.7,7.3,37.2
					c4.8,6.5,11.6,9.8,20.3,9.8c14.1,0,22.7-9.2,25.9-27.5l33,2c-2.1,17.4-8.6,30.7-19.5,39.7c-10.8,9.1-24.1,13.6-39.8,13.6
					c-19.3,0-34.9-6.6-47-19.9c-12-13.3-18.1-31.7-18.1-55.1c0-22,5.8-39.9,17.5-53.9c11.7-14,27.6-21,47.8-21
					C816.2,645.3,835.9,664.1,840.3,701.7z"/>
			</g>
			<g>
				<path class="st0" d="M930,647.5l45.6,145.5h-36.6l-9-30h-47.1l-9.1,30h-29.9l46.6-145.5H930z M891,736.2h30.8l-15.3-51.1
					L891,736.2z"/>
			</g>
			<g>
				<path class="st0" d="M1102,647.5v90.6c0,14.6-1.7,25.5-5,32.7c-3.3,7.1-9.5,13-18.5,17.6c-9,4.6-20.5,6.9-34.5,6.9
					c-14,0-25.1-2.1-33.4-6.2c-8.3-4.1-14.5-10-18.6-17.6c-4.1-7.6-6.2-18.7-6.2-33.4v-90.6h37v90.6c0,7.8,0.7,13.6,2,17.3
					c1.3,3.7,3.9,6.6,7.9,8.8c3.9,2.2,8.8,3.3,14.6,3.3c6.4,0,11.6-1.1,15.6-3.2c4-2.1,6.7-5,8-8.5c1.3-3.5,2-9.4,2-17.6v-90.6H1102
					z"/>
			</g>
			<g>
				<path class="st0" d="M1221.3,647.5v28.8h-36v116.7h-34.5V676.3h-36.2v-28.8H1221.3z"/>
			</g>
			<g>
				<path class="st0" d="M1269.9,647.5v145.5h-34V647.5H1269.9z"/>
			</g>
			<g>
				<path class="st0" d="M1353.7,795.3c-19.6,0-34.8-7.4-45.5-22.1s-16.1-32.5-16.1-53.4c0-21.3,5.4-39,16.3-53.2
					c10.9-14.2,26.3-21.3,46.4-21.3c20.3,0,35.6,7.6,46,22.8c10.3,15.2,15.5,32.5,15.5,52.1c0,21.1-5.3,38.9-16,53.4
					C1389.7,788,1374.2,795.3,1353.7,795.3z M1354.7,673.1c-17.9,0-26.8,15.7-26.8,47.1c0,31.5,8.9,47.2,26.8,47.2
					c17.3,0,26-15.7,26-47.1C1380.6,688.9,1372,673.1,1354.7,673.1z"/>
			</g>
			<g>
				<path class="st0" d="M1550.6,647.5v145.5h-29.1l-56.9-98.3c0.1,2.5,0.1,4.1,0.2,4.9c0.3,2.5,0.4,4.6,0.4,6.3v87.1h-26.5V647.5
					h36.7l49.5,85.8c-0.4-4.3-0.6-7.5-0.6-9.7v-76.1H1550.6z"/>
			</g>
		</g>
	</g>
</g>
</svg>
